<?xml version="1.0" encoding="utf-8"?>
<!-- Generator: Adobe Illustrator 26.3.1, SVG Export Plug-In . SVG Version: 6.00 Build 0)  -->
<svg version="1.1" id="Layer_1" xmlns="http://www.w3.org/2000/svg" xmlns:xlink="http://www.w3.org/1999/xlink" x="0px" y="0px"
	 viewBox="0 0 23 21" style="enable-background:new 0 0 23 21;" xml:space="preserve">
<style type="text/css">
	.st0{fill:#FFFFFF;enable-background:new    ;}
</style>
<path class="st0" d="M12,3.8l-0.6,3l-0.6,2.6h2.6h6.5v2.1c0,0,0,0,0,0.1l-3,7.2H7.4V8.4L12,3.8z M1.1,10.5v8.4V10.5z M12.8,0
	L5.9,6.9C5.5,7.2,5.3,7.8,5.3,8.4v10.5c0,1.2,0.9,2.1,2.1,2.1h9.4c0.8,0,1.6-0.5,1.9-1.3l3.1-7.5c0.1-0.2,0.1-0.5,0.1-0.7V9.4H22
	c0-1.2-0.9-2.1-2.1-2.1h-6.6l1-4.8V2.2c0-0.4-0.2-0.8-0.4-1.2L12.8,0z M3.2,8.4H-1V21h4.2V8.4z"/>
</svg>
